PathFileType	4	(X/Y/Z)	C:\Users\Biomechanik\SynologyDrive\AlexP\Athlete_03\Athlete_3_25_03_31\Squat_bar_03\marker_experimental.trc
DataRate	CameraRate	NumFrames	NumMarkers	Units	OrigDataRate	OrigDataStartFrame	OrigNumFrames
200.000000	200.000000	4	55	mm	200.000000	248	497
Frame#	Time	BL			BR			GLAB			RFHD			LFHD			C7			T6			SPINMOL			SPINM2			SPINM3			T12			BELTOL			BELT2			BELT3			SACROL			SACR2			SACR3			LTHOL			LTH2			LTH3			LSHAOL			LSHA2			LSHA3			LHEE			LTOE			LM5			RTHOL			RTH2			RTH3			RSHAOL			RSHA2			RSHA3			RHEE			RTOE			RM5			STRN			XIPH			LACR			LUAOL			LUA2			LUA3			LLAOL			LLA2			LLA3			LWRR			LWRU			RACR			RUAOL			RUA2			RUA3			RLAOL			RLA2			RLA3			RWRR			RWRU			
		X1	Y1	Z1	X2	Y2	Z2	X3	Y3	Z3	X4	Y4	Z4	X5	Y5	Z5	X6	Y6	Z6	X7	Y7	Z7	X8	Y8	Z8	X9	Y9	Z9	X10	Y10	Z10	X11	Y11	Z11	X12	Y12	Z12	X13	Y13	Z13	X14	Y14	Z14	X15	Y15	Z15	X16	Y16	Z16	X17	Y17	Z17	X18	Y18	Z18	X19	Y19	Z19	X20	Y20	Z20	X21	Y21	Z21	X22	Y22	Z22	X23	Y23	Z23	X24	Y24	Z24	X25	Y25	Z25	X26	Y26	Z26	X27	Y27	Z27	X28	Y28	Z28	X29	Y29	Z29	X30	Y30	Z30	X31	Y31	Z31	X32	Y32	Z32	X33	Y33	Z33	X34	Y34	Z34	X35	Y35	Z35	X36	Y36	Z36	X37	Y37	Z37	X38	Y38	Z38	X39	Y39	Z39	X40	Y40	Z40	X41	Y41	Z41	X42	Y42	Z42	X43	Y43	Z43	X44	Y44	Z44	X45	Y45	Z45	X46	Y46	Z46	X47	Y47	Z47	X48	Y48	Z48	X49	Y49	Z49	X50	Y50	Z50	X51	Y51	Z51	X52	Y52	Z52	X53	Y53	Z53	X54	Y54	Z54	X55	Y55	Z55	

249	1.24	252.2498779296875	787.6854248046876	-2241.1845703125	259.4597778320312	838.4282836914062	-220.7267456054687	549.1836547851562	979.7236938476564	-1187.668701171875	495.0968933105469	1002.684204101563	-1126.386352539062	508.5048522949219	1002.708251953125	-1262.513549804688	309.8305358886719	872.0869140625001	-1202.286010742188	182.4574279785156	763.9564208984376	-1208.774658203125	159.6419830322266	742.9991455078126	-1229.345947265625	150.6125946044922	736.6452026367189	-1180.218505859375	120.057243347168	691.1094360351564	-1217.472534179688	92.77077484130859	647.4282836914064	-1217.441162109375	58.112060546875	639.0138549804689	-1232.727416992188	56.65885162353516	635.6228027343751	-1182.514526367188	20.52823829650879	588.3090209960939	-1212.762084960938	-39.07562255859375	462.7479553222657	-1238.388916015625	-38.70159149169922	460.3060913085938	-1186.72216796875	-44.69949340820312	400.5810546875001	-1214.505493164062	164.1675262451172	365.9234313964845	-1508.8916015625	214.2239685058594	313.6388244628907	-1539.177368164062	215.1663360595703	363.5867309570314	-1543.128540039062	255.6302185058594	287.4735412597657	-1618.1630859375	193.5517578125	253.5051574707032	-1581.00390625	233.6153564453125	232.0423889160157	-1602.83837890625	116.7222061157227	72.19068908691415	-1461.37255859375	318.5534057617188	48.05705642700205	-1536.38330078125	238.8412628173828	27.06927490234385	-1618.825805664062	142.1454772949219	352.6886291503907	-911.0762939453125	179.9299163818359	413.4781799316407	-874.5903930664062	190.6991577148438	364.9138793945313	-873.579833984375	226.9069519042969	301.1067504882813	-797.9225463867188	223.8553009033203	222.3095855712891	-800.0282592773438	195.1340026855469	254.6691589355469	-824.6658935546875	97.05030822753906	67.45054626464849	-970.2045288085938	281.9519653320312	45.70909118652349	-872.4708251953125	192.5630950927734	39.07592391967778	-800.2996215820312	421.9181518554688	706.7328491210939	-1206.83056640625	375.9950561523438	566.8616333007814	-1202.212890625	350.4927673339844	815.2954711914064	-1375.145141601562	222.8626098632812	716.7554321289064	-1468.606811523438	167.4580993652344	682.8430175781251	-1458.197875976562	197.2338714599609	662.5620727539064	-1494.238037109375	158.9059906005859	599.4957275390626	-1562.67041015625	228.7430725097656	582.9734497070314	-1597.273681640625	207.7705688476562	627.8154907226564	-1588.675048828125	275.5525207519531	697.6350097656251	-1627.857666015625	293.6383056640625	722.1926269531251	-1554.804565429688	361.4165344238281	810.9712524414064	-1040.428100585938	238.0838165283203	713.6112670898439	-951.03466796875	207.0319061279297	662.205810546875	-922.8114013671875	184.6515502929688	678.7265625000001	-967.3248291015625	192.0960998535156	597.6277465820312	-839.77001953125	203.5380096435547	675.9093017578125	-829.8646850585938	235.2721405029297	637.2756958007812	-818.8740844726562	278.8824157714844	719.0802612304688	-800.3041381835938	309.3987426757812	745.1259765625	-869.8261108398438	
250	1.245	252.3687744140625	785.6901245117189	-2241.353759765625	259.1579895019531	836.5040283203125	-220.8956756591796	548.9442749023438	977.9573364257814	-1187.79345703125	494.8252868652344	1000.893432617188	-1126.52099609375	508.2668151855469	1000.90673828125	-1262.651977539062	309.6944274902344	870.1682128906251	-1202.431518554688	182.372802734375	762.0843505859376	-1208.951293945312	159.5755767822266	741.1452026367189	-1229.557373046875	150.5103302001953	734.7982788085939	-1180.428100585938	119.9736099243164	689.2705688476564	-1217.700561523438	92.62303161621094	645.6954345703126	-1217.696044921875	57.95430374145508	637.2678833007814	-1232.994262695312	56.50934600830078	633.8813476562501	-1182.78173828125	20.43154716491699	586.5213012695314	-1213.032470703125	-39.03194046020508	460.5699157714844	-1238.716918945312	-38.72090530395508	458.1621093750001	-1187.041137695312	-44.49404525756836	398.4060974121094	-1214.800048828125	164.5550079345703	364.701385498047	-1508.998168945312	214.7441864013672	312.6982421875001	-1539.551025390625	215.5265197753906	362.6791992187501	-1543.285034179688	255.9893341064453	287.2801208496095	-1618.18310546875	193.8500823974609	253.3873596191407	-1581.032958984375	233.892578125	231.8671417236329	-1602.836669921875	116.7816772460938	72.17598724365243	-1461.292724609375	318.5840148925781	48.01313018798837	-1536.314086914062	238.8449096679688	27.12301063537608	-1618.780395507812	142.222900390625	351.6737060546876	-911.2354125976562	179.7459106445312	412.7530212402344	-874.9365844726562	190.6828460693359	364.2283020019532	-873.692626953125	226.8675079345703	301.1030578613282	-798.0037841796875	223.8987884521484	222.3042449951172	-800.1109008789062	195.1679534912109	254.6394042968751	-824.7755737304688	97.11190795898438	67.40480804443365	-970.2686157226562	281.9613037109375	45.69280242919928	-872.5064086914062	192.5817413330078	39.10728073120122	-800.3410034179688	421.9289855957031	704.8863525390626	-1206.955810546875	376.0457763671875	565.0678710937501	-1202.29638671875	350.4425964355469	813.3573608398439	-1375.287719726562	222.8698883056641	714.8173828125001	-1468.809692382812	167.4744873046875	680.9141845703126	-1458.431396484375	197.3068237304688	660.6182250976564	-1494.422973632812	158.9260406494141	597.5505371093751	-1562.881591796875	228.7746124267578	581.0231933593751	-1597.469482421875	207.7629089355469	625.8629150390626	-1588.870239257812	275.575439453125	695.6978759765626	-1628.036010742188	293.6467590332031	720.2532348632814	-1554.972778320312	361.2976684570312	809.0999145507814	-1040.574340820312	237.9961853027344	711.6950073242189	-951.161376953125	206.947265625	660.2828369140625	-922.9519653320312	184.5766296386719	676.8079833984376	-967.4688110351562	191.9829406738281	595.6840209960938	-839.9459838867188	203.4136962890625	673.9820556640625	-830.0289306640625	235.1417541503906	635.3424072265625	-819.0324096679688	278.7277221679688	717.1603393554688	-800.448974609375	309.2595520019531	743.2099609375	-869.9630126953125	
251	1.25	252.4765014648438	783.7294921875001	-2241.521240234375	258.8465881347656	834.6180419921875	-221.0617980957031	548.6974487304688	976.2353515625001	-1187.916137695312	494.5463256835938	999.1458740234376	-1126.653930664062	508.0191345214844	999.1463012695314	-1262.786987304688	309.5538940429688	868.2858276367189	-1202.573852539062	182.2845916748047	760.2491455078126	-1209.12744140625	159.5065460205078	739.3297119140626	-1229.768798828125	150.4053344726562	732.9880371093751	-1180.635009765625	119.886589050293	687.4725341796876	-1217.93115234375	92.46024322509766	643.9906616210939	-1217.9541015625	57.78371047973633	635.5439453125001	-1233.26513671875	56.34958648681641	632.1646728515626	-1183.0517578125	20.33579254150391	584.7524414062501	-1213.297973632812	-38.98587036132812	458.4173583984376	-1239.048461914062	-38.73746871948242	456.0452880859376	-1187.3642578125	-44.28442001342773	396.2567443847657	-1215.098876953125	164.9429168701172	363.5010986328126	-1509.109985351562	215.2581176757812	311.7737426757814	-1539.936157226562	215.8816680908203	361.7897949218751	-1543.450439453125	256.3395690917969	287.0884704589845	-1618.2119140625	194.1446075439453	253.2658843994141	-1581.072021484375	234.1677093505859	231.688949584961	-1602.8427734375	116.8405456542969	72.16129302978524	-1461.214721679688	318.614501953125	47.96929931640634	-1536.24658203125	238.8498382568359	27.17459106445322	-1618.736206054688	142.2961883544922	350.6806945800782	-911.3984985351562	179.5621948242188	412.0433044433594	-875.2861938476562	190.6618194580078	363.5588989257813	-873.8086547851562	226.8207397460938	301.1049499511719	-798.08837890625	223.9369201660156	222.3050994873047	-800.1965942382812	195.1965484619141	254.6138763427735	-824.8885498046875	97.17082977294922	67.36174011230474	-970.3329467773438	281.9706420898438	45.67618560791021	-872.5423583984375	192.6009521484375	39.13840484619146	-800.38232421875	421.9366455078125	703.0777587890626	-1207.0751953125	376.0968933105469	563.2799682617189	-1202.3779296875	350.3880004882812	811.4600219726564	-1375.425659179688	222.8791198730469	712.9140625000001	-1469.009399414062	167.4920959472656	679.0195312500001	-1458.659912109375	197.3756103515625	658.7109985351564	-1494.607299804688	158.9483795166016	595.6384887695314	-1563.086059570312	228.8074493408203	579.1101074218751	-1597.66162109375	207.7567443847656	623.9448242187501	-1589.06005859375	275.5989074707031	693.7976074218751	-1628.208984375	293.6575317382812	718.3519897460939	-1555.136108398438	361.171142578125	807.2731933593751	-1040.719848632812	237.9030151367188	709.8201293945314	-951.2862548828125	206.8600921630859	658.400146484375	-923.0922241210938	184.4988250732422	674.9290771484376	-967.6123657226562	191.8675231933594	593.7769775390625	-840.1224365234375	203.2864227294922	672.09228515625	-830.1919555664062	235.0085144042969	633.4467163085938	-819.1909790039062	278.5688781738281	715.2781372070312	-800.592529296875	309.1157531738281	741.3335571289062	-870.09716796875	
252	1.255	252.5735015869141	781.8062133789064	-2241.687255859375	258.5260314941406	832.7725219726562	-221.2247772216796	548.4435424804688	974.5588378906251	-1188.036743164062	494.26025390625	997.4420776367189	-1126.785034179688	507.7621765136719	997.4284057617189	-1262.91845703125	309.4090881347656	866.4413452148439	-1202.713256835938	182.1926574707031	758.4523925781251	-1209.302856445312	159.4351196289062	737.5540771484376	-1229.9794921875	150.2976531982422	731.2164916992189	-1180.838623046875	119.7960357666016	685.7171630859376	-1218.16357421875	92.28253936767578	642.3160400390626	-1218.214965820312	57.60116958618164	633.8444824218751	-1233.539428710938	56.17916488647461	630.4747924804689	-1183.32421875	20.23936080932617	583.0053100585939	-1213.559448242188	-38.93810653686523	456.2930908203126	-1239.383178710938	-38.75331115722656	453.9589843750001	-1187.691162109375	-44.07118606567383	394.1357116699219	-1215.4013671875	165.3314819335938	362.3238525390626	-1509.225708007812	215.7655181884766	310.8672485351564	-1540.330444335938	216.2320556640625	360.9197082519532	-1543.62353515625	256.6806640625	286.8989868164064	-1618.248657226562	194.4354553222656	253.1421051025391	-1581.119506835938	234.4405670166016	231.5093231201173	-1602.855590820312	116.8988876342773	72.14685821533212	-1461.138427734375	318.6448669433594	47.92606735229501	-1536.181274414062	238.8560791015625	27.22383499145518	-1618.692993164062	142.3677673339844	349.7096252441407	-911.565185546875	179.3805694580078	411.3486633300782	-875.6390380859375	190.6376953125	362.9050598144532	-873.9284057617188	226.7681427001953	301.1126708984376	-798.1771850585938	223.9702453613281	222.3121795654297	-800.2855224609375	195.2206420898438	254.5928192138672	-825.0054931640625	97.22643280029297	67.32226562500006	-970.3973999023438	281.9800720214844	45.65932083129888	-872.5785522460938	192.62109375	39.16946029663091	-800.4241333007812	421.9410705566406	701.3078613281251	-1207.188842773438	376.1475219726562	561.5010986328126	-1202.4580078125	350.3291625976562	809.6049194335939	-1375.559204101562	222.8894348144531	711.0476074218751	-1469.205688476562	167.5097351074219	677.1617431640626	-1458.883056640625	197.4386901855469	656.8422851562501	-1494.79150390625	158.9720306396484	593.7615356445314	-1563.28369140625	228.8407135009766	577.2360229492189	-1597.848876953125	207.7530517578125	622.0633544921876	-1589.24462890625	275.6223754882812	691.9361572265626	-1628.376342773438	293.6704711914062	716.4903564453126	-1555.293701171875	361.0378112792969	805.4911499023439	-1040.863891601562	237.8044738769531	707.9881591796876	-951.4092407226562	206.7699127197266	656.5599365234375	-923.2319946289062	184.4176025390625	673.0922241210939	-967.7550659179688	191.7486877441406	591.9091186523438	-840.298828125	203.1553955078125	670.24169921875	-830.353515625	234.8717498779297	631.590576171875	-819.3494873046875	278.4059753417969	713.4354248046875	-800.7344970703125	308.9674987792969	739.49853515625	-870.228759765625	
